<?xml version="1.0" encoding="UTF-8" standalone="no"?>
<svg
   width="1028"
   height="1028"
   version="1.1"
   id="svg1"
   sodipodi:docname="logo.svg"
   inkscape:export-filename="logo-128.png"
   inkscape:export-xdpi="11.953307"
   inkscape:export-ydpi="11.953307"
   inkscape:version="1.4.2 (ebf0e940d0, 2025-05-08)"
   xmlns:inkscape="http://www.inkscape.org/namespaces/inkscape"
   xmlns:sodipodi="http://sodipodi.sourceforge.net/DTD/sodipodi-0.dtd"
   xmlns="http://www.w3.org/2000/svg"
   xmlns:svg="http://www.w3.org/2000/svg">
  <defs
     id="defs1" />
  <sodipodi:namedview
     id="namedview1"
     pagecolor="#ffffff"
     bordercolor="#000000"
     borderopacity="0.25"
     inkscape:showpageshadow="2"
     inkscape:pageopacity="0.0"
     inkscape:pagecheckerboard="0"
     inkscape:deskcolor="#d1d1d1"
     inkscape:zoom="0.57723003"
     inkscape:cx="680.83776"
     inkscape:cy="682.57018"
     inkscape:window-width="2560"
     inkscape:window-height="1403"
     inkscape:window-x="0"
     inkscape:window-y="0"
     inkscape:window-maximized="1"
     inkscape:current-layer="svg1" />
  <path
     fill="#68cccc"
     fill-rule="evenodd"
     d="m 509.41294,1.3952342 c -0.84973,0.988206 -5.0984,9.1761978 -9.34706,18.0700508 l -26.3417,54.06898 c -10.33841,20.893497 -18.41089,38.398855 -17.8444,38.822375 0.56649,0.56469 18.83574,0.98821 40.78717,1.12938 21.95144,0 43.76123,0.56469 48.43476,1.12938 a 436.47933,435.09294 0 0 1 134.541,38.11651 461.82969,460.36278 0 0 1 87.0976,55.76305 441.71935,440.31632 0 0 1 60.89749,63.24518 c 4.24867,5.50571 10.33842,13.69371 13.45412,18.35239 a 450.3583,448.92783 0 0 1 52.96666,109.83203 l 6.37299,24.70515 a 409.14626,407.8467 0 0 1 8.49733,47.29271 c 0.5665,3.10579 1.13299,17.7877 1.41623,32.46962 a 504.1747,502.57329 0 0 1 -0.56649,40.2341 776.08914,773.62405 0 0 1 -2.12433,21.17584 556.57488,554.80703 0 0 1 -11.32977,56.46891 c -1.8411,6.63509 -4.95678,16.37599 -6.79787,21.8817 a 455.59831,454.15119 0 0 1 -23.93414,54.63368 407.02193,405.72911 0 0 1 -43.6196,66.06861 506.7239,505.11439 0 0 1 -29.74064,32.46963 416.79387,415.47 0 0 1 -29.74064,26.9639 c -6.65624,5.22338 -18.12764,13.41136 -25.49199,18.21122 l -17.56114,11.57613 a 478.96596,477.44463 0 0 1 -80.86622,36.98713 500.20928,498.62047 0 0 1 -35.40552,9.88206 389.4608,388.22375 0 0 1 -99.84359,8.75268 397.53325,396.27057 0 0 1 -89.22192,-13.55254 365.38503,364.22446 0 0 1 -75.05972,-29.64617 426.56578,425.21088 0 0 1 -64.01319,-40.93996 574.27765,572.45356 0 0 1 -61.60562,-60.70408 439.59501,438.19874 0 0 1 -31.58174,-44.46927 318.64974,317.63762 0 0 1 -17.4195,-30.35202 422.60036,421.25806 0 0 1 -34.27256,-90.06792 597.07879,595.1823 0 0 1 -9.91355,-61.69228 c -0.56649,-6.21158 -0.99135,-23.01108 -0.99135,-37.41066 0,-20.3288 0.84973,-31.62258 3.68217,-50.82201 a 555.15866,553.39531 0 0 1 7.78922,-41.78699 c 2.40757,-9.31738 7.64759,-26.25805 11.61302,-37.41066 4.24866,-11.29378 12.32112,-29.92852 18.41087,-41.78699 5.94812,-11.71731 15.57844,-28.65797 21.38493,-37.41065 5.80651,-8.75268 14.87032,-21.31701 20.11034,-27.95212 a 348.39039,347.28379 0 0 1 70.38619,-68.04503 c 5.80651,-4.23517 12.03789,-8.47033 13.73734,-9.45854 2.54922,-1.41172 3.25731,-1.12938 4.67355,1.55289 l 5.52325,10.30558 c 2.12433,3.95282 9.20543,17.3642 15.57843,30.0697 a 114.71391,114.34954 0 0 0 13.31248,22.44638 c 0.84973,-0.28234 12.60437,-19.19943 26.05847,-42.06933 l 42.62825,-72.56255 36.82174,-62.539318 c 10.19681,-17.364189 18.5525,-32.469621 18.5525,-33.599 0,-0.988206 -1.41622,-2.258756 -3.25731,-2.541101 A 303118.04,302155.25 0 0 1 208.32434,11.418466 c -5.94811,-0.564689 -8.07245,-0.423517 -8.07245,0.988205 0,0.988207 3.39893,8.187992 7.6476,16.093639 l 16.99465,32.187279 c 5.0984,9.882058 9.34706,18.352395 9.34706,19.199428 0,0.847034 -5.6649,5.082202 -12.46275,9.599715 a 654.01088,651.93355 0 0 0 -47.72665,35.857758 587.73173,585.86493 0 0 0 -63.16347,64.93925 l -13.312475,17.36418 c -6.797862,9.1762 -16.14492,22.58756 -20.676828,30.06969 -4.673529,7.19979 -12.1795,20.32881 -16.994653,28.79915 -4.531906,8.6115 -12.179499,24.42281 -16.994653,35.01072 a 558.98246,557.20695 0 0 0 -30.165508,91.33847 597.92854,596.02934 0 0 0 -12.03787837,82.30344 583.76631,581.9121 0 0 0 1.27459917,76.51536 597.50366,595.60582 0 0 0 12.7459892,75.386 634.04218,632.02826 0 0 0 19.543851,61.55111 511.96392,510.33776 0 0 0 22.659537,50.11615 544.25374,542.52504 0 0 0 63.446699,98.8206 624.6951,622.7109 0 0 0 70.81107,71.85668 486.47193,484.92676 0 0 0 99.84359,64.93925 550.62674,548.87779 0 0 0 70.10293,28.79916 552.32622,550.57186 0 0 0 107.63279,23.1522 c 8.49733,0.8471 30.30714,1.6941 48.15152,1.6941 17.84439,0 39.6542,-0.847 48.15152,-1.6941 a 573.14465,571.32419 0 0 0 65.14617,-10.8702 714.76677,712.49646 0 0 0 62.88022,-19.0583 l 20.5352,-8.18798 a 494.26115,492.69124 0 0 0 26.9082,-12.70551 1280.2638,1276.1973 0 0 0 27.19144,-14.11723 300.66372,299.70874 0 0 0 24.64224,-15.10543 588.58147,586.71196 0 0 0 62.73861,-47.15153 l 19.96872,-19.19944 c 7.93083,-7.76447 20.81843,-21.45818 28.46603,-30.4932 7.78921,-8.89386 19.68547,-24.14046 26.62495,-33.88135 a 637.29947,635.27522 0 0 0 41.35366,-67.7627 648.91249,646.85135 0 0 0 26.9082,-62.82166 498.22657,496.64406 0 0 0 18.83573,-68.32737 540.57158,538.85457 0 0 0 10.6217,-92.89135 c 0.2832,-11.29379 0,-29.78736 -0.7081,-40.93997 a 577.11007,575.27701 0 0 0 -14.1622,-92.75017 725.24681,722.94321 0 0 0 -11.1882,-38.11653 l -6.23137,-16.23481 c -2.69082,-7.34095 -7.0811,-18.63474 -9.91355,-24.98749 A 726.80465,724.4961 0 0 0 952.54852,247.17616 550.91,549.16015 0 0 0 899.72347,175.46065 509.13146,507.51432 0 0 0 872.81526,147.22619 1337.7624,1333.5133 0 0 0 852.13844,128.16794 486.47193,484.92676 0 0 0 781.18576,76.781227 624.27024,622.28738 0 0 0 721.27961,45.723327 702.44565,700.21447 0 0 0 654.00911,21.01818 659.10928,657.01575 0 0 0 567.05314,3.2304738 L 551.47471,1.8187511 527.96544,0.40702841 c -13.4541,-0.70586143 -17.2779,-0.56468908 -18.5525,0.98820579 M 214.98058,290.37487 c -0.28325,0.28234 -0.56649,93.59722 -0.56649,207.2409 0,206.53504 0,206.53504 50.98396,206.53504 50.98396,0 50.98396,0 50.98396,-62.53932 0,-62.39815 0,-62.39815 11.32977,-75.80951 6.373,-7.34096 11.89625,-13.55254 12.46275,-13.69371 0.56649,-0.28234 2.26595,1.83524 3.8238,4.65869 a 19721.161,19658.522 0 0 1 65.9959,106.44389 c 24.92548,40.2341 24.92548,40.2341 119.95392,40.65762 95.17006,0.28234 95.17006,0.28234 95.17006,-72.42138 0,-72.84489 0,-72.84489 12.8876,-72.42138 13.02923,0.42352 13.02923,0.42352 49.28451,72.70372 36.25524,72.2802 36.25524,72.2802 95.45329,72.2802 35.40553,0 59.05642,-0.42352 59.05642,-1.12938 0,-0.70586 -7.50599,-15.81129 -16.71141,-33.59899 a 24257.883,24180.833 0 0 0 -65.57104,-124.2316 c -2.83244,-4.37634 -2.83244,-4.37634 4.67353,-9.45854 a 126.32692,125.92567 0 0 0 52.11694,-76.3742 188.07415,187.47678 0 0 0 2.83244,-56.46891 c -0.84973,-7.05862 -2.83244,-17.3642 -4.39028,-23.01108 a 126.89341,126.49036 0 0 0 -17.41952,-37.55183 140.20588,139.76055 0 0 0 -37.105,-34.44604 140.48912,140.04289 0 0 0 -44.46934,-15.81129 c -5.94812,-0.9882 -57.64019,-1.41172 -146.72051,-1.41172 -137.37344,-0.14118 -137.37344,-0.14118 -152.24376,17.7877 a 5520.8545,5503.3187 0 0 0 -98.42734,118.58471 c -0.84975,0.9882 -1.8411,1.83524 -2.12434,1.83524 -0.28325,0 -0.42488,-31.0579 -0.14163,-69.17441 0.42487,-69.17442 0.42487,-69.17442 -49.99259,-69.45676 a 1125.8957,1122.3196 0 0 0 -50.98396,0.14117 m 293.72423,67.76269 a 9310.2372,9280.6652 0 0 1 -82.28243,94.44426 c -8.49733,9.59971 -15.2952,18.07004 -15.2952,18.63474 0,0.70585 9.20545,15.38777 20.39358,32.75197 a 12687.924,12647.624 0 0 1 35.40553,54.77484 7277.96,7254.843 0 0 0 53.53316,82.02109 c 2.26597,3.24696 2.40757,-4.6587 1.98272,-145.97213 -0.42488,-82.16227 -0.84975,-149.64261 -1.13299,-150.06613 -0.42487,-0.28234 -6.08975,5.64689 -12.60437,13.2702 m 116.27176,69.17441 c 0,29.92851 0,29.92851 29.4574,29.92851 a 162.86542,162.34811 0 0 0 36.25525,-1.97641 c 3.68217,-1.12938 8.9222,-3.5293 11.47139,-5.36454 a 29.740643,29.646178 0 0 0 7.64759,-8.188 c 1.55784,-2.82343 3.25731,-7.62329 3.8238,-10.72909 a 31.156862,31.0579 0 0 0 -0.70811,-11.01143 c -0.70811,-2.96461 -2.83244,-7.48213 -4.67353,-10.1644 -1.9827,-2.82345 -6.08975,-6.07041 -10.33842,-7.90565 -6.5146,-2.82344 -9.77192,-3.1058 -40.07906,-3.67048 -32.85631,-0.56469 -32.85631,-0.56469 -32.85631,29.22265"
     id="path1"
     style="stroke-width:1.41397" />
</svg>
