<svg xmlns="http://www.w3.org/2000/svg" width="733" height="735"><path fill="#68cccc" fill-rule="evenodd" d="M362.3 5.2c-.6.7-3.6 6.5-6.6 12.8l-18.6 38.3c-7.3 14.8-13 27.2-12.6 27.5.4.4 13.3.7 28.8.8 15.5 0 30.9.4 34.2.8a308.2 308.2 0 0 1 95 27 326.1 326.1 0 0 1 61.5 39.5 311.9 311.9 0 0 1 43 44.8c3 3.9 7.3 9.7 9.5 13a318 318 0 0 1 37.4 77.8l4.5 17.5a288.9 288.9 0 0 1 6 33.5c.4 2.2.8 12.6 1 23a356 356 0 0 1-.4 28.5 548 548 0 0 1-1.5 15 393 393 0 0 1-8 40c-1.3 4.7-3.5 11.6-4.8 15.5a321.7 321.7 0 0 1-16.9 38.7A287.4 287.4 0 0 1 583 546a357.8 357.8 0 0 1-21 23 294.3 294.3 0 0 1-21 19.1c-4.7 3.7-12.8 9.5-18 12.9l-12.4 8.2a338.2 338.2 0 0 1-57.1 26.2 353.2 353.2 0 0 1-25 7 275 275 0 0 1-70.5 6.2 280.7 280.7 0 0 1-63-9.6 258 258 0 0 1-53-21 301.2 301.2 0 0 1-45.2-29 405.5 405.5 0 0 1-43.5-43 310.4 310.4 0 0 1-22.3-31.5 225 225 0 0 1-12.3-21.5 298.4 298.4 0 0 1-24.2-63.8 421.6 421.6 0 0 1-7-43.7c-.4-4.4-.7-16.3-.7-26.5 0-14.4.6-22.4 2.6-36a392 392 0 0 1 5.5-29.6c1.7-6.6 5.4-18.6 8.2-26.5 3-8 8.7-21.2 13-29.6 4.2-8.3 11-20.3 15.1-26.5 4.1-6.2 10.5-15.1 14.2-19.8a246 246 0 0 1 49.7-48.2c4.1-3 8.5-6 9.7-6.7 1.8-1 2.3-.8 3.3 1.1l3.9 7.3c1.5 2.8 6.5 12.3 11 21.3a81 81 0 0 0 9.4 15.9c.6-.2 8.9-13.6 18.4-29.8l30.1-51.4 26-44.3c7.2-12.3 13.1-23 13.1-23.8 0-.7-1-1.6-2.3-1.8a214033 214033 0 0 1-168-18.3c-4.2-.4-5.7-.3-5.7.7 0 .7 2.4 5.8 5.4 11.4l12 22.8c3.6 7 6.6 13 6.6 13.6 0 .6-4 3.6-8.8 6.8A461.8 461.8 0 0 0 125.5 93a415 415 0 0 0-44.6 46l-9.4 12.3c-4.8 6.5-11.4 16-14.6 21.3-3.3 5.1-8.6 14.4-12 20.4-3.2 6.1-8.6 17.3-12 24.8a394.7 394.7 0 0 0-21.3 64.7 422.2 422.2 0 0 0-8.5 58.3A412.2 412.2 0 0 0 4 395a421.9 421.9 0 0 0 9 53.4A447.7 447.7 0 0 0 26.8 492a361.5 361.5 0 0 0 16 35.5 384.3 384.3 0 0 0 44.8 70 441.1 441.1 0 0 0 50 50.9 343.5 343.5 0 0 0 70.5 46 388.8 388.8 0 0 0 49.5 20.4 390 390 0 0 0 76 16.4c6 .6 21.4 1.2 34 1.2 12.6 0 28-.6 34-1.2a404.7 404.7 0 0 0 46-7.7A504.7 504.7 0 0 0 492 710l14.5-5.8a349 349 0 0 0 19-9 904 904 0 0 0 19.2-10 212.3 212.3 0 0 0 17.4-10.7 415.6 415.6 0 0 0 44.3-33.4l14.1-13.6c5.6-5.5 14.7-15.2 20.1-21.6 5.5-6.3 13.9-17.1 18.8-24a450 450 0 0 0 29.2-48 458.2 458.2 0 0 0 19-44.5 351.8 351.8 0 0 0 13.3-48.4 381.7 381.7 0 0 0 7.5-65.8c.2-8 0-21.1-.5-29a407.5 407.5 0 0 0-10-65.7 512.1 512.1 0 0 0-7.9-27l-4.4-11.5c-1.9-5.2-5-13.2-7-17.7a513.2 513.2 0 0 0-23.4-45 389 389 0 0 0-37.3-50.8 359.5 359.5 0 0 0-19-20A944.6 944.6 0 0 0 604.3 95a343.5 343.5 0 0 0-50.1-36.4 440.8 440.8 0 0 0-42.3-22 496 496 0 0 0-47.5-17.5A465.4 465.4 0 0 0 403 6.5l-11-1-16.6-1c-9.5-.5-12.2-.4-13.1.7M154.4 209.9c-.2.2-.4 66.3-.4 146.8C154 503 154 503 190 503s36 0 36-44.3c0-44.2 0-44.2 8-53.7 4.5-5.2 8.4-9.6 8.8-9.7.4-.2 1.6 1.3 2.7 3.3a13925.2 13925.2 0 0 1 46.6 75.4c17.6 28.5 17.6 28.5 84.7 28.8 67.2.2 67.2.2 67.2-51.3 0-51.6 0-51.6 9.1-51.3 9.2.3 9.2.3 34.8 51.5 25.6 51.2 25.6 51.2 67.4 51.2 25 0 41.7-.3 41.7-.8s-5.3-11.2-11.8-23.8a17128.6 17128.6 0 0 0-46.3-88c-2-3.1-2-3.1 3.3-6.7a89.2 89.2 0 0 0 36.8-54.1 132.8 132.8 0 0 0 2-40c-.6-5-2-12.3-3.1-16.3a89.6 89.6 0 0 0-12.3-26.6 99 99 0 0 0-26.2-24.4A99.2 99.2 0 0 0 508 211c-4.2-.7-40.7-1-103.6-1-97-.1-97-.1-107.5 12.6a3898.3 3898.3 0 0 0-69.5 84c-.6.7-1.3 1.3-1.5 1.3-.2 0-.3-22-.1-49 .3-49 .3-49-35.3-49.2a795 795 0 0 0-36 .1m207.4 48a6574 6574 0 0 1-58.1 66.9c-6 6.8-10.8 12.8-10.8 13.2 0 .5 6.5 10.9 14.4 23.2a8959 8959 0 0 1 25 38.8 5139 5139 0 0 0 37.8 58.1c1.6 2.3 1.7-3.3 1.4-103.4-.3-58.2-.6-106-.8-106.3-.3-.2-4.3 4-8.9 9.4m82.1 49c0 21.2 0 21.2 20.8 21.2a115 115 0 0 0 25.6-1.4c2.6-.8 6.3-2.5 8.1-3.8a21 21 0 0 0 5.4-5.8c1.1-2 2.3-5.4 2.7-7.6a22 22 0 0 0-.5-7.8c-.5-2.1-2-5.3-3.3-7.2-1.4-2-4.3-4.3-7.3-5.6-4.6-2-6.9-2.2-28.3-2.6-23.2-.4-23.2-.4-23.2 20.7"/></svg>